<svg xmlns="http://www.w3.org/2000/svg" xmlns:xlink="http://www.w3.org/1999/xlink" width="19.185" height="24.196" viewBox="0 0 19.185 24.196">
  <defs>
    <filter id="Tracé_15129" x="0" y="0" width="19.185" height="24.196" filterUnits="userSpaceOnUse">
      <feOffset dy="1" input="SourceAlpha"/>
      <feGaussianBlur result="blur"/>
      <feFlood flood-opacity="0.161"/>
      <feComposite operator="in" in2="blur"/>
      <feComposite in="SourceGraphic"/>
    </filter>
  </defs>
  <g transform="matrix(1, 0, 0, 1, 0, 0)" filter="url(#Tracé_15129)">
    <path id="Tracé_15129-2" data-name="Tracé 15129" d="M11.673,7.222c-.876,0-2.232-1-3.66-.96A5.4,5.4,0,0,0,3.429,9.046c-1.956,3.4-.5,8.412,1.4,11.172.936,1.344,2.04,2.856,3.5,2.808,1.4-.06,1.932-.912,3.636-.912s2.172.912,3.66.876c1.512-.024,2.472-1.368,3.4-2.724a12.06,12.06,0,0,0,1.536-3.156,4.9,4.9,0,0,1-2.976-4.488,4.978,4.978,0,0,1,2.4-4.212,5.2,5.2,0,0,0-4.056-2.2C14.085,6.07,12.537,7.222,11.673,7.222Zm3.12-2.832A4.851,4.851,0,0,0,15.945.85a4.99,4.99,0,0,0-3.264,1.68,4.64,4.64,0,0,0-1.176,3.432A4.137,4.137,0,0,0,14.793,4.39Z" transform="translate(-1.99 -0.33)" fill="#fff" stroke="rgba(0,0,0,0)" stroke-miterlimit="10" stroke-width="1"/>
  </g>
</svg>
