<svg width="150" height="52" viewBox="0 0 150 52" fill="none" xmlns="http://www.w3.org/2000/svg">
<g id="LogoYsocorp">
<g id="Calque 2">
<g id="Calque 1">
<path id="Trac&#195;&#169; 154" d="M56.7621 23.5819L44.4252 2.11474C44.0404 1.54122 43.5271 1.06533 42.9262 0.724858C42.3252 0.384389 41.6532 0.188722 40.9634 0.153397H16.2699C15.5801 0.188722 14.9081 0.384389 14.3071 0.724858C13.7062 1.06533 13.1929 1.54122 12.8081 2.11474L0.471039 23.5819C0.161289 24.1998 0 24.8815 0 25.5727C0 26.2639 0.161289 26.9456 0.471039 27.5635L12.8173 49.0503C13.1892 49.6411 13.6961 50.1351 14.2964 50.4914C14.8967 50.8477 15.5731 51.0562 16.2699 51.0997H40.9625C41.6569 51.0604 42.3323 50.8579 42.9338 50.5085C43.5353 50.1592 44.0459 49.6729 44.4242 49.0892L56.7705 27.5633C57.0767 26.9441 57.2353 26.2624 57.2338 25.5716C57.2323 24.8808 57.0709 24.1998 56.7621 23.5819ZM21.3498 27.4065C21.6769 27.4065 22.0008 27.471 22.303 27.5962C22.6052 27.7214 22.8798 27.9048 23.1111 28.1362C23.3424 28.3675 23.5259 28.6421 23.651 28.9443C23.7762 29.2465 23.8406 29.5705 23.8406 29.8976V30.0447C23.8419 30.3731 23.7785 30.6986 23.654 31.0025C23.5295 31.3064 23.3464 31.5828 23.1151 31.8159C22.8837 32.049 22.6088 32.2343 22.3058 32.3611C22.0029 32.488 21.678 32.5539 21.3496 32.5552C20.6871 32.5526 20.0526 32.2883 19.5842 31.8199C19.1158 31.3515 18.8515 30.717 18.8489 30.0545V29.9074C18.8489 29.2442 19.1124 28.6081 19.5813 28.1392C20.0503 27.6702 20.6864 27.4067 21.3496 27.4067L21.3498 27.4065ZM33.0591 33.1142C31.4797 37.1742 29.7248 38.6746 26.5375 38.6746C25.1049 38.6956 23.6874 38.3799 22.3991 37.7528C22.2525 37.6806 22.1392 37.5549 22.0826 37.4016C22.0261 37.2483 22.0306 37.0791 22.0952 36.929L23.1249 34.6733C23.1896 34.5247 23.3102 34.4074 23.4607 34.3469C23.6111 34.2863 23.7793 34.2874 23.929 34.3497C24.592 34.6631 25.3145 34.8303 26.0477 34.8401C27.3226 34.8401 28.1071 34.2714 28.8525 32.5454L21.0065 13.5494C20.9746 13.4748 20.9579 13.3946 20.9574 13.3135C20.9569 13.2324 20.9727 13.152 21.0038 13.0771C21.0348 13.0021 21.0806 12.9342 21.1383 12.8772C21.1961 12.8202 21.2646 12.7754 21.3399 12.7453C21.4127 12.7084 21.4939 12.6914 21.5753 12.6962H25.0469C25.1716 12.6956 25.2934 12.7328 25.3966 12.8029C25.4997 12.8729 25.5792 12.9725 25.6247 13.0885L31.097 27.426L36.0788 13.1081C36.1201 12.9849 36.1992 12.8778 36.3048 12.8021C36.4105 12.7265 36.5373 12.686 36.6673 12.6865H40.0514C40.2136 12.6865 40.3693 12.7503 40.4849 12.864C40.6005 12.9778 40.6667 13.1324 40.6693 13.2946C40.6691 13.3757 40.6522 13.4559 40.6196 13.5302L33.0591 33.1142Z" fill="white"/>
<path id="Soustraction 5" d="M69.9142 39.7845H63.4424C63.198 39.7845 62.9635 39.6878 62.7903 39.5153C62.617 39.3429 62.5191 39.109 62.5179 38.8645V26.2548C62.5173 25.2703 62.2592 24.3032 61.7693 23.4493L49.159 1.39662C49.0777 1.25609 49.0352 1.09642 49.0361 0.934096C49.0371 0.771774 49.0812 0.612679 49.1641 0.473074C49.2442 0.331994 49.3607 0.21485 49.5013 0.133937C49.6419 0.0530246 49.8016 0.0111669 49.9638 0.0128036H57.5281C57.695 0.0133222 57.8588 0.0593339 58.0017 0.145599C58.1446 0.231864 58.2615 0.355139 58.3397 0.502605L66.6159 15.7916C66.6363 15.8294 66.6664 15.8608 66.7032 15.8828C66.7401 15.9048 66.7822 15.9164 66.8251 15.9163C66.8684 15.9166 66.9107 15.9043 66.9472 15.8811C66.9837 15.8579 67.0126 15.8247 67.0307 15.7854L74.6689 0.528938C74.7437 0.37391 74.8611 0.243224 75.0073 0.152371C75.1535 0.0615177 75.3225 0.0142334 75.4946 0.0158132L82.9464 0.0173179C83.1011 0.0166617 83.2534 0.054915 83.3894 0.128671C83.5253 0.202426 83.6406 0.309386 83.7244 0.439405C83.8073 0.567646 83.8565 0.714635 83.8677 0.866946C83.8789 1.01926 83.8516 1.17188 83.7883 1.31085C84.0223 1.21455 84.4585 1.03474 84.9182 0.881617C86.87 0.264695 88.9097 -0.0291169 90.9563 0.0120513C93.0115 -0.0127486 95.0582 0.281091 97.0235 0.882934C98.7108 1.40112 100.283 2.23799 101.655 3.3483C102.935 4.39586 103.961 5.71882 104.658 7.21856C105.238 8.46078 105.609 9.79054 105.755 11.1537C106.46 9.02864 107.576 7.06274 109.039 5.36751C110.582 3.62488 112.505 2.26166 114.661 1.38421C117.094 0.423142 119.693 -0.0461046 122.309 0.00358695C124.907 -0.0453734 127.488 0.425621 129.901 1.38872C132.059 2.2599 133.976 3.63646 135.491 5.40268C136.593 6.70883 137.491 8.17477 138.153 9.75033C138.205 9.87304 138.228 10.0061 138.22 10.1391C138.211 10.2721 138.173 10.4014 138.106 10.5168C138.041 10.6313 137.951 10.7294 137.843 10.8037C137.735 10.8779 137.611 10.9263 137.481 10.9451C135.455 11.2392 133.451 11.5861 131.524 11.9875C131.469 11.9979 131.414 12.0034 131.358 12.0037C131.203 12.0048 131.051 11.9635 130.917 11.8845C130.784 11.8054 130.675 11.6915 130.601 11.5549C130.373 11.1311 130.112 10.7253 129.822 10.3413C128.94 9.20263 127.794 8.29597 126.483 7.69952C125.173 7.10307 123.736 6.83488 122.298 6.91817C120.852 6.83966 119.408 7.10963 118.088 7.70535C116.769 8.30107 115.611 9.20501 114.713 10.3413C113.141 12.6194 112.257 15.301 112.165 18.0672C109.572 19.1727 107.075 20.3592 104.743 21.5919H104.717C104.715 21.591 104.713 21.5906 104.711 21.5906C104.708 21.5906 104.706 21.591 104.704 21.5919C104.696 21.5992 104.688 21.605 104.679 21.6092C103.502 22.228 102.337 22.8791 101.119 23.6002C101.074 23.6246 101.038 23.6637 101.018 23.7112C100.998 23.7586 100.995 23.8114 101.009 23.8609C101.022 23.9108 101.051 23.9552 101.091 23.9875C101.131 24.0197 101.181 24.0382 101.232 24.04C101.266 24.0395 101.298 24.0326 101.329 24.0194C102.849 23.3698 104.226 22.813 105.546 22.3176C107.688 21.5061 109.785 20.7781 111.777 20.1546C111.8 20.1479 111.824 20.1445 111.848 20.1445C111.879 20.144 111.909 20.1497 111.938 20.1614C111.967 20.1731 111.993 20.1905 112.014 20.2126C112.058 20.2573 112.083 20.3173 112.083 20.38C112.081 24.7784 112.979 28.0403 114.751 30.0744C115.706 31.111 116.879 31.923 118.186 32.4518C119.493 32.9806 120.901 33.213 122.308 33.1325C123.654 33.14 124.989 32.8832 126.236 32.3767C127.478 31.871 128.584 31.0824 129.468 30.0737C130.454 28.9163 131.191 27.5683 131.633 26.1135C132.191 24.2542 132.456 22.3193 132.419 20.3785C132.425 19.1091 132.341 17.8408 132.17 16.5831C132.154 16.4695 132.161 16.3539 132.191 16.2432C132.22 16.1325 132.272 16.0289 132.342 15.9383C132.411 15.8472 132.498 15.7708 132.597 15.7139C132.696 15.657 132.805 15.6206 132.919 15.6069C134.963 15.3594 136.974 15.1607 138.892 15.0179H138.959C139.164 15.0195 139.363 15.0943 139.519 15.2288C139.675 15.3633 139.778 15.5487 139.81 15.7521C140.026 17.2901 140.13 18.8417 140.122 20.3948C140.168 23.2468 139.786 26.0896 138.987 28.8279C138.32 31.0806 137.157 33.155 135.583 34.8989H115.441C113.747 34.8968 112.089 35.3834 110.665 36.3002C110.082 35.8352 109.536 35.3252 109.032 34.7748C108.094 33.7538 107.302 32.6081 106.678 31.3702C106.495 32.0434 106.237 32.6936 105.907 33.3084C105.161 34.6793 104.129 35.8738 102.881 36.8109C101.528 37.8003 100.009 38.5395 98.3962 38.9936C96.6297 39.5058 94.7985 39.761 92.9593 39.7516C87.5662 39.7516 83.4526 38.6867 80.7368 36.5874C79.4966 35.6333 78.4859 34.4134 77.779 33.0174C77.0394 31.4943 76.5979 29.8437 76.4785 28.1547C76.469 28.0389 76.4835 27.9224 76.5212 27.8126C76.559 27.7027 76.6192 27.6018 76.6979 27.5163C76.7751 27.4309 76.8695 27.3629 76.9749 27.3164C77.0803 27.2699 77.1944 27.2462 77.3096 27.2468H83.1593C83.3635 27.2473 83.5604 27.3222 83.7133 27.4575C83.8661 27.5928 83.9645 27.7791 83.9898 27.9817C84.0779 28.7361 84.3257 29.4631 84.7166 30.1143C85.1075 30.7655 85.6325 31.3261 86.2569 31.7586C87.9294 32.9046 89.9255 33.484 91.9517 33.4116C93.9135 33.5382 95.868 33.0708 97.5603 32.0705C98.1586 31.6745 98.6468 31.1336 98.9797 30.498C99.3126 29.8625 99.4793 29.153 99.4642 28.4357C99.4715 27.8761 99.3961 27.3185 99.2404 26.7809C99.0806 26.2527 98.7794 25.7783 98.3695 25.4089C97.8484 24.941 97.2482 24.5697 96.5967 24.3127C95.6508 23.9346 94.6719 23.6444 93.6727 23.4459C90.7441 22.8296 88.329 22.2347 86.2866 21.6272C84.4651 21.1259 82.7302 20.351 81.1411 19.3293C79.8721 18.4999 78.8452 17.3497 78.1646 15.9951C77.7311 15.0687 77.4501 14.0782 77.3329 13.0621L71.5471 23.5718C71.0861 24.4067 70.845 25.3451 70.8462 26.2988L70.8447 38.844C70.8472 38.9673 70.8249 39.0897 70.7792 39.2042C70.7336 39.3187 70.6654 39.4229 70.5787 39.5106C70.4918 39.5982 70.3881 39.6675 70.274 39.7145C70.1599 39.7616 70.0376 39.7854 69.9142 39.7845ZM90.9583 6.57038C89.2268 6.45561 87.4995 6.85057 85.99 7.70667C85.4447 8.08423 85.0057 8.59582 84.7153 9.19206C84.4248 9.7883 84.2926 10.4491 84.3314 11.1112C84.3263 11.6414 84.4483 12.1652 84.6872 12.6385C84.9261 13.1119 85.2749 13.521 85.7044 13.8318C87.0297 14.7407 88.5303 15.3624 90.11 15.6569C92.5177 16.2166 94.6158 16.7437 96.3497 17.2252C97.9978 17.6725 99.6121 18.2357 101.181 18.9106C102.001 19.2443 102.783 19.6666 103.511 20.1701C103.82 20.3866 104.112 20.6269 104.383 20.8884C104.377 20.6669 104.377 20.4454 104.377 20.2308C104.345 17.4653 104.712 14.7095 105.467 12.0487C105.317 12.1672 105.132 12.2321 104.942 12.233H99.1465C98.9518 12.2321 98.7637 12.1627 98.615 12.037C98.4662 11.9113 98.3665 11.7372 98.3332 11.5453C98.1479 10.1474 97.4389 8.87212 96.3493 7.97696C94.7554 6.92917 92.8611 6.43446 90.9583 6.56925V6.57038Z" fill="white"/>
</g>
</g>
<g id="Groupe 538">
<path id="Soustraction 4" d="M115.581 51.0267C114.362 51.0234 113.164 50.7051 112.103 50.1024C111.043 49.4997 110.157 48.6332 109.53 47.587C108.884 46.5001 108.543 45.2592 108.543 43.9949C108.543 42.7307 108.883 41.4898 109.528 40.4027C110.154 39.3572 111.04 38.4911 112.099 37.8886C113.158 37.286 114.355 36.9674 115.573 36.9635C115.653 36.9635 115.739 36.9635 115.838 36.9635H143.226C145.046 37.0272 146.77 37.7974 148.032 39.1108C149.298 40.4192 150.004 42.1695 150 43.99C150.003 45.8105 149.297 47.5607 148.032 48.8696C146.77 50.1834 145.046 50.9541 143.226 51.0186L115.838 51.0171C115.725 51.0267 115.648 51.0267 115.581 51.0267ZM132.443 44.996H133.219C133.372 44.9924 133.523 45.0315 133.655 45.1088C133.796 45.2004 133.916 45.3209 134.007 45.4624L135.565 47.7352C135.675 47.8999 135.823 48.0349 135.997 48.1283C136.163 48.2146 136.346 48.2592 136.533 48.2585C136.801 48.2644 137.063 48.1738 137.269 48.0029C137.37 47.9293 137.451 47.8328 137.506 47.7215C137.562 47.6102 137.59 47.4873 137.588 47.363C137.578 47.1427 137.503 46.9303 137.373 46.7524L136.63 45.6878C136.472 45.452 136.275 45.2447 136.048 45.0746C135.842 44.9379 135.608 44.8486 135.362 44.8131C135.944 44.6944 136.468 44.3801 136.846 43.9223C137.204 43.4599 137.39 42.8875 137.373 42.3028C137.395 41.9449 137.336 41.5868 137.202 41.2542C137.068 40.9216 136.862 40.623 136.598 40.3799C135.934 39.8925 135.117 39.658 134.296 39.7191H131.294C131.157 39.7095 131.019 39.7277 130.889 39.7726C130.759 39.8174 130.639 39.8881 130.537 39.9802C130.445 40.0816 130.374 40.2004 130.329 40.3297C130.284 40.4589 130.266 40.596 130.275 40.7326V47.1365C130.267 47.2818 130.29 47.427 130.34 47.5635C130.39 47.7 130.468 47.8249 130.568 47.9306C130.674 48.0308 130.799 48.1084 130.936 48.159C131.072 48.2095 131.218 48.2318 131.363 48.2246C131.508 48.2319 131.653 48.2097 131.789 48.1592C131.925 48.1086 132.049 48.0308 132.154 47.9306C132.252 47.8236 132.328 47.6981 132.378 47.5616C132.427 47.425 132.449 47.2799 132.443 47.1348L132.441 44.9956L132.443 44.996ZM124.282 39.6112C123.501 39.5916 122.729 39.7728 122.038 40.1375C121.411 40.4806 120.901 41.0033 120.574 41.6385C120.219 42.3492 120.042 43.136 120.061 43.9304C120.043 44.725 120.22 45.5119 120.575 46.2225C120.903 46.8594 121.413 47.3848 122.039 47.7322C122.729 48.0986 123.502 48.281 124.284 48.2619C125.06 48.2784 125.828 48.0954 126.514 47.7303C127.141 47.3822 127.651 46.8571 127.981 46.2207C128.337 45.5111 128.514 44.7248 128.497 43.931C128.513 43.1372 128.338 42.3514 127.987 41.639C127.661 41.0045 127.152 40.4822 126.526 40.1395C125.837 39.7727 125.064 39.59 124.283 39.6091L124.282 39.6112ZM115.873 39.6112C115.1 39.5937 114.335 39.7749 113.652 40.1375C113.022 40.483 112.51 41.0075 112.179 41.6447C111.82 42.3519 111.641 43.1367 111.658 43.9297C111.642 44.727 111.822 45.516 112.181 46.2278C112.513 46.8636 113.024 47.3879 113.651 47.7352C114.335 48.0944 115.099 48.2745 115.871 48.2585C116.822 48.2763 117.755 47.9967 118.54 47.4585C118.661 47.3784 118.762 47.2705 118.833 47.1436C118.896 47.0104 118.926 46.8643 118.922 46.7172C118.927 46.4896 118.852 46.2675 118.71 46.0894C118.652 46.0092 118.576 45.944 118.487 45.8992C118.399 45.8544 118.301 45.8312 118.202 45.8317C118.105 45.8303 118.007 45.8465 117.915 45.8795C117.887 45.8912 117.774 45.9408 117.544 46.0602C117.195 46.2193 116.905 46.3385 116.682 46.4138C116.459 46.4891 116.224 46.5268 115.989 46.5256C115.693 46.5478 115.397 46.5016 115.122 46.3907C114.847 46.2798 114.602 46.1071 114.405 45.886C114.015 45.3096 113.831 44.6178 113.885 43.9238C113.833 43.2358 114.017 42.5508 114.405 41.9804C114.602 41.7593 114.848 41.5867 115.122 41.4758C115.397 41.3648 115.694 41.3184 115.989 41.3405C116.249 41.34 116.508 41.3768 116.758 41.4496C117.034 41.5348 117.297 41.6557 117.541 41.8093C117.648 41.8769 117.761 41.9341 117.879 41.9804C117.981 42.0187 118.09 42.0368 118.2 42.0335C118.299 42.0337 118.397 42.0106 118.485 41.9661C118.574 41.9217 118.65 41.8572 118.709 41.7777C118.851 41.5996 118.925 41.3774 118.918 41.1502C118.925 41.0016 118.894 40.8536 118.83 40.7194C118.757 40.5947 118.656 40.4881 118.536 40.4076C117.751 39.873 116.82 39.595 115.871 39.6119L115.873 39.6112ZM140.23 39.7203C140.093 39.711 139.956 39.7293 139.826 39.7742C139.696 39.8192 139.576 39.8898 139.474 39.9819C139.382 40.0834 139.312 40.2024 139.267 40.3318C139.222 40.4611 139.204 40.5981 139.213 40.7347V47.1371C139.206 47.2827 139.229 47.4282 139.279 47.565C139.329 47.7018 139.407 47.8271 139.506 47.9335C139.612 48.0333 139.738 48.1107 139.875 48.1611C140.011 48.2114 140.157 48.2335 140.303 48.2263C140.451 48.2339 140.6 48.2117 140.74 48.1611C140.881 48.1104 141.009 48.0325 141.119 47.9316C141.219 47.8258 141.296 47.7008 141.347 47.5642C141.397 47.4276 141.419 47.2824 141.411 47.1371V45.1019H143.291C144.08 45.1473 144.856 44.8909 145.463 44.3845C145.727 44.1307 145.934 43.8229 146.069 43.4822C146.205 43.1414 146.265 42.7756 146.247 42.4095C146.267 42.043 146.207 41.6765 146.073 41.3351C145.938 40.9936 145.732 40.6853 145.467 40.4311C144.858 39.9275 144.081 39.6738 143.292 39.721L140.23 39.7203ZM124.282 46.5752C123.998 46.589 123.714 46.5355 123.455 46.4193C123.195 46.3031 122.967 46.1273 122.787 45.9062C122.39 45.3271 122.199 44.6307 122.246 43.9297C122.199 43.2331 122.389 42.5412 122.787 41.9676C122.968 41.7481 123.197 41.5736 123.456 41.4583C123.716 41.3429 123.998 41.2899 124.282 41.3033C124.565 41.2907 124.847 41.3445 125.106 41.4603C125.364 41.5761 125.592 41.7507 125.771 41.9703C126.172 42.5432 126.364 43.2354 126.318 43.9327C126.364 44.6313 126.173 45.3252 125.777 45.9022C125.598 46.1243 125.369 46.301 125.109 46.4182C124.849 46.5353 124.565 46.5895 124.28 46.5763L124.282 46.5752ZM142.995 43.4525H141.416V41.3826H142.995C143.788 41.3826 144.19 41.732 144.19 42.4213C144.202 42.5648 144.182 42.7093 144.131 42.844C144.08 42.9786 143.999 43.1001 143.895 43.1997C143.634 43.3869 143.316 43.4763 142.995 43.4519V43.4525ZM133.949 43.3422H132.417V41.3806H133.949C134.314 41.349 134.68 41.4297 134.997 41.6117C135.107 41.7042 135.193 41.8219 135.247 41.9545C135.302 42.087 135.324 42.2307 135.311 42.3735C135.323 42.5135 135.301 42.6542 135.246 42.7836C135.191 42.913 135.106 43.0272 134.997 43.1161C134.678 43.2915 134.313 43.3695 133.95 43.3407L133.949 43.3422Z" fill="white"/>
</g>
</g>
</svg>
