<?xml version="1.0" encoding="UTF-8"?>
<svg id="Calque_1" data-name="Calque 1" xmlns="http://www.w3.org/2000/svg" viewBox="0 0 500 211.9">
  <defs>
    <style>
      .cls-1 {
        fill: #eaeaea;
      }

      .cls-2 {
        fill: #0098ff;
      }

      .cls-3 {
        fill: #f9b233;
      }
    </style>
  </defs>
  <g>
    <g>
      <path class="cls-2" d="M84.86,130.56c-1.28-2.27-3.06-3.56-5.35-3.88-2.29-.31-5.9.03-10.83,1.03-4.93,1-8.98,1.53-12.15,1.59-8.64.15-14.68-2.8-18.09-8.87-1.78-3.15-2.47-6.47-2.09-9.94.38-3.47,1.85-6.84,4.39-10.11,2.54-3.26,5.89-6.06,10.03-8.4,4.17-2.35,8.31-3.69,12.42-4.01,4.11-.33,7.84.38,11.2,2.11,3.35,1.74,6.02,4.35,7.99,7.85l-12.02,6.78c-1.51-2.67-3.52-4.28-6.04-4.81-2.52-.53-5.3.06-8.35,1.77-2.94,1.66-4.87,3.56-5.8,5.73-.93,2.16-.82,4.26.32,6.29,1.07,1.9,2.92,2.95,5.55,3.15,2.63.21,6.12-.18,10.47-1.15,8-1.8,14.42-2.05,19.27-.77,4.84,1.29,8.54,4.2,11.1,8.74,2.85,5.05,3.17,10.09.96,15.11-2.2,5.03-6.54,9.36-13.01,13-4.49,2.53-9.04,4.01-13.65,4.45-4.61.43-8.69-.23-12.24-2-3.55-1.77-6.38-4.54-8.51-8.3l12.07-6.8c3.63,6.44,9.29,7.49,16.99,3.16,2.86-1.61,4.76-3.45,5.71-5.52.95-2.07.84-4.14-.34-6.23Z"/>
      <path class="cls-1" d="M65.12,87.9c3.36,0,6.45.73,9.27,2.19,3.35,1.74,6.02,4.35,7.99,7.85l-12.02,6.78c-1.51-2.67-3.52-4.28-6.04-4.81-.6-.13-1.21-.19-1.84-.19-2.02,0-4.19.65-6.51,1.96-2.94,1.66-4.87,3.56-5.8,5.73-.93,2.16-.82,4.26.32,6.29,1.07,1.9,2.92,2.95,5.55,3.15.46.04.95.05,1.47.05,2.42,0,5.42-.4,9-1.2,4.66-1.05,8.79-1.57,12.39-1.57,2.57,0,4.86.27,6.88.8,4.84,1.29,8.54,4.2,11.1,8.74,2.85,5.05,3.17,10.09.96,15.11-2.2,5.03-6.54,9.36-13.01,13-4.49,2.53-9.04,4.01-13.65,4.45-.91.09-1.8.13-2.67.13-3.54,0-6.73-.71-9.58-2.13-3.55-1.77-6.38-4.54-8.51-8.3l12.07-6.8c2.17,3.85,5.06,5.77,8.68,5.77,2.44,0,5.2-.87,8.3-2.62,2.86-1.61,4.76-3.45,5.71-5.52.95-2.07.84-4.14-.34-6.23-1.28-2.27-3.06-3.56-5.35-3.88-.54-.07-1.16-.11-1.86-.11-2.22,0-5.21.38-8.97,1.14-4.93,1-8.98,1.53-12.15,1.59-.21,0-.43,0-.63,0-8.31,0-14.13-2.96-17.46-8.88-1.78-3.15-2.47-6.47-2.09-9.94.38-3.47,1.85-6.84,4.39-10.11,2.54-3.26,5.89-6.06,10.03-8.4,4.17-2.35,8.31-3.69,12.42-4.01.65-.05,1.29-.08,1.93-.08M65.12,77.9c-.89,0-1.81.04-2.72.11-5.55.44-11.11,2.22-16.53,5.27-5.28,2.98-9.66,6.66-13.01,10.96-3.69,4.73-5.86,9.83-6.45,15.15-.62,5.58.5,10.95,3.32,15.95,2.57,4.57,7.13,9.76,15.07,12.34-1.94,1.32-3.36,3.29-4,5.57-.71,2.55-.38,5.29.92,7.6,3.11,5.53,7.41,9.68,12.76,12.35,4.23,2.11,8.95,3.18,14.04,3.18,1.17,0,2.39-.06,3.6-.17,6-.57,11.93-2.48,17.63-5.69,8.37-4.71,14.17-10.67,17.25-17.7,3.47-7.92,2.99-16.24-1.41-24.04-3.75-6.66-9.48-11.25-16.6-13.32,3.48-3.05,4.46-8.22,2.1-12.41-2.93-5.21-7.01-9.19-12.11-11.83-4.24-2.2-8.91-3.31-13.87-3.31h0Z"/>
    </g>
    <g>
      <path class="cls-2" d="M139.74,66.59l-19.23,7.16,19.47,52.3-12.94,4.82-19.47-52.3-18.97,7.06-3.9-10.48,51.14-19.04,3.9,10.48Z"/>
      <path class="cls-1" d="M135.84,56.11l3.9,10.48-19.23,7.16,19.47,52.3-12.94,4.82-19.47-52.3-18.97,7.06-3.9-10.48,51.14-19.04M135.84,46.11c-1.18,0-2.36.21-3.49.63l-51.14,19.04c-5.18,1.93-7.81,7.68-5.88,12.86l3.9,10.48c.93,2.49,2.8,4.5,5.21,5.61,1.32.6,2.74.91,4.16.91,1.18,0,2.36-.21,3.49-.63l9.6-3.57,15.98,42.93c.93,2.49,2.8,4.5,5.21,5.61,1.32.6,2.74.91,4.16.91,1.18,0,2.36-.21,3.49-.63l12.94-4.82c5.18-1.93,7.81-7.68,5.88-12.86l-15.98-42.93,9.86-3.67c5.18-1.93,7.81-7.68,5.88-12.86l-3.9-10.48c-.93-2.49-2.8-4.5-5.21-5.61-1.32-.6-2.74-.91-4.16-.91h0Z"/>
    </g>
    <g>
      <path class="cls-2" d="M183.55,88.09l-10.71,2.48,5.52,23.89-13.45,3.11-15.09-65.27,24.25-5.61c7.71-1.78,14.05-1.44,19.03,1.03,4.98,2.47,8.19,6.84,9.64,13.12,1.03,4.45.92,8.39-.32,11.81-1.24,3.42-3.61,6.46-7.12,9.13l20.29,23.41.14.63-14.43,3.34-17.76-21.06ZM170.32,79.67l10.85-2.51c3.38-.78,5.79-2.24,7.25-4.39,1.46-2.15,1.83-4.73,1.14-7.75-.71-3.08-2.15-5.3-4.3-6.65s-5.04-1.62-8.66-.79l-10.8,2.5,4.53,19.59Z"/>
      <path class="cls-1" d="M183.05,45.57c3.81,0,7.16.72,10.06,2.15,4.98,2.47,8.19,6.84,9.64,13.12,1.03,4.45.92,8.39-.32,11.81-1.24,3.42-3.61,6.46-7.12,9.13l20.29,23.41.14.63-14.43,3.34-17.76-21.06-10.71,2.48,5.52,23.89-13.45,3.11-15.09-65.27,24.25-5.61c3.23-.75,6.22-1.12,8.98-1.12M170.32,79.67l10.85-2.51c3.38-.78,5.79-2.24,7.25-4.39,1.46-2.15,1.83-4.73,1.14-7.75-.71-3.08-2.15-5.3-4.3-6.65-1.33-.84-2.95-1.26-4.84-1.26-1.17,0-2.44.16-3.81.48l-10.8,2.5,4.53,19.59M183.05,35.57c-3.5,0-7.27.46-11.23,1.38l-24.25,5.61c-2.58.6-4.83,2.2-6.23,4.45-1.4,2.25-1.86,4.97-1.26,7.55l15.09,65.27c.6,2.58,2.2,4.83,4.45,6.23,1.6,1,3.44,1.52,5.3,1.52.75,0,1.51-.08,2.25-.26l13.45-3.11c5.38-1.24,8.73-6.61,7.49-12l-1.02-4.41,6.58,7.81c1.92,2.28,4.74,3.55,7.64,3.55.75,0,1.5-.08,2.25-.26l14.43-3.34c5.38-1.24,8.73-6.61,7.49-11.99l-.14-.63c-.37-1.59-1.12-3.07-2.19-4.3l-14.38-16.59c1.28-1.89,2.3-3.89,3.06-5.99,1.9-5.25,2.13-11.12.66-17.47-2.68-11.59-9.6-17.18-14.94-19.82-4.27-2.12-9.15-3.19-14.5-3.19h0ZM177.78,67.57l1.06-.24c.38-.09.69-.14.93-.17,0,0,0,.01,0,.02-.22.08-.5.16-.87.25l-1.11.26-.02-.1h0Z"/>
    </g>
    <g>
      <path class="cls-2" d="M258.41,71.25l-26.29,3.33,2.26,17.8,30.85-3.91,1.39,11-44.55,5.65-8.42-66.46,44.46-5.64,1.41,11.09-30.76,3.9,2.01,15.84,26.29-3.33,1.36,10.73Z"/>
      <path class="cls-1" d="M258.12,33.02l1.41,11.09-30.76,3.9,2.01,15.84,26.29-3.33,1.36,10.73-26.29,3.33,2.26,17.8,30.85-3.91,1.39,11-44.55,5.65-8.42-66.46,44.46-5.64M258.12,23.02c-.42,0-.84.03-1.26.08l-44.46,5.64c-5.48.69-9.36,5.7-8.66,11.18l8.42,66.46c.64,5.05,4.95,8.74,9.91,8.74.42,0,.84-.03,1.27-.08l44.55-5.65c2.63-.33,5.02-1.7,6.65-3.79,1.62-2.1,2.35-4.75,2.02-7.38l-1.39-11c-.64-5.02-4.9-8.7-9.82-8.74,2.21-2.12,3.42-5.21,3-8.48l-1.36-10.73c-.3-2.36-1.42-4.52-3.16-6.11,3.8-1.8,6.18-5.89,5.63-10.29l-1.41-11.09c-.33-2.63-1.7-5.02-3.79-6.65-1.76-1.37-3.92-2.1-6.13-2.1h0Z"/>
    </g>
    <g>
      <path class="cls-2" d="M324.15,43.09l-20.52-.03-.07,55.81-13.8-.02.07-55.81-20.24-.03v-11.18s54.58.07,54.58.07l-.02,11.18Z"/>
      <path class="cls-1" d="M269.59,31.84l54.57.07-.02,11.18-20.52-.03-.07,55.81-13.8-.02.07-55.81-20.24-.03v-11.18M269.59,21.84c-5.52,0-9.99,4.47-10,9.99v11.18c-.02,2.65,1.03,5.2,2.91,7.07,1.87,1.88,4.42,2.93,7.07,2.94h10.24s-.06,45.82-.06,45.82c0,2.65,1.05,5.2,2.92,7.07,1.87,1.88,4.42,2.93,7.07,2.94l13.8.02s0,0,.01,0c5.52,0,9.99-4.47,10-9.99l.06-45.81h10.52s0,.01.01.01c5.52,0,9.99-4.47,10-9.99l.02-11.18c0-2.65-1.05-5.2-2.92-7.08-1.87-1.88-4.42-2.93-7.07-2.94l-54.57-.07s0,0-.01,0h0Z"/>
    </g>
    <g>
      <path class="cls-2" d="M384.89,87.19c-1.86,6.98-5.54,12.06-11.03,15.23s-12.09,4.02-19.8,2.55c-8.44-1.61-14.53-5.71-18.29-12.31-3.75-6.6-4.69-14.86-2.8-24.77l.76-4.02c1.21-6.33,3.38-11.69,6.53-16.08,3.15-4.39,7.04-7.49,11.67-9.27,4.63-1.79,9.69-2.16,15.18-1.11,7.59,1.45,13.32,4.65,17.19,9.6,3.86,4.95,5.46,11.17,4.78,18.66l-13.56-2.58c.48-4.31-.12-7.62-1.78-9.92-1.67-2.3-4.58-3.85-8.74-4.64-4.52-.86-8.21.11-11.07,2.92-2.86,2.81-4.97,7.62-6.33,14.41l-.95,4.97c-1.36,7.11-1.27,12.51.26,16.21,1.53,3.7,4.61,5.98,9.25,6.87,4.19.8,7.5.44,9.93-1.08,2.43-1.52,4.18-4.25,5.24-8.2l13.56,2.58Z"/>
      <path class="cls-1" d="M361.23,36.81c1.91,0,3.87.19,5.9.58,7.59,1.45,13.32,4.65,17.19,9.6,3.86,4.95,5.46,11.17,4.78,18.66l-13.56-2.58c.48-4.31-.12-7.62-1.78-9.92-1.67-2.3-4.58-3.85-8.74-4.64-1.06-.2-2.07-.3-3.04-.3-3.16,0-5.84,1.08-8.03,3.23-2.86,2.81-4.97,7.62-6.33,14.41l-.95,4.97c-1.36,7.11-1.27,12.51.26,16.21,1.53,3.7,4.61,5.98,9.25,6.87,1.44.27,2.78.41,4.02.41,2.35,0,4.32-.5,5.91-1.49,2.43-1.52,4.18-4.25,5.24-8.2l13.56,2.58c-1.86,6.98-5.54,12.06-11.03,15.23-3.75,2.16-8.02,3.25-12.81,3.25-2.22,0-4.55-.23-7-.7-8.44-1.61-14.53-5.71-18.29-12.31-3.75-6.6-4.69-14.86-2.8-24.77l.76-4.02c1.21-6.33,3.38-11.69,6.53-16.08,3.15-4.39,7.04-7.49,11.67-9.27,2.92-1.13,6.02-1.69,9.28-1.69M361.23,26.81c-4.48,0-8.81.79-12.87,2.36-6.46,2.49-11.91,6.79-16.2,12.78-3.98,5.56-6.75,12.3-8.23,20.04l-.77,4.03c-2.34,12.26-1.02,22.89,3.93,31.58,5.18,9.1,13.86,15.05,25.11,17.19,3.05.58,6.03.88,8.87.88,6.54,0,12.53-1.54,17.81-4.59,7.85-4.53,13.13-11.7,15.69-21.31.72-2.68.28-5.54-1.2-7.9-1.48-2.35-3.87-3.98-6.6-4.5l-13.56-2.58c-.63-.12-1.26-.18-1.88-.18-4.44,0-8.45,2.97-9.65,7.4-.36,1.33-.72,1.99-.9,2.27-.13.02-.32.03-.59.03-.6,0-1.32-.08-2.14-.24-1.65-.32-1.81-.69-1.88-.87-.19-.47-1.08-3.16.32-10.51l.94-4.93c1.33-6.63,3.03-8.72,3.52-9.2.24-.23.37-.36,1.02-.36.34,0,.73.04,1.17.13,1.38.26,2.12.57,2.46.75.08.41.17,1.3,0,2.88-.58,5.19,2.94,9.95,8.07,10.93l13.56,2.58c.62.12,1.25.18,1.87.18,2.16,0,4.27-.7,6.02-2.02,2.25-1.7,3.68-4.27,3.94-7.08.91-10.06-1.39-18.72-6.85-25.72-5.39-6.9-13.19-11.36-23.2-13.27-2.63-.5-5.24-.76-7.77-.76h0Z"/>
    </g>
    <g>
      <path class="cls-2" d="M435.08,133.86l-12.47-5.91,12.29-25.95-24.33-11.52-12.29,25.95-12.47-5.91,28.67-60.54,12.48,5.91-11.62,24.53,24.33,11.52,11.62-24.53,12.48,5.91-28.67,60.55Z"/>
      <path class="cls-1" d="M414.47,49.98l12.48,5.91-11.62,24.53,24.33,11.52,11.62-24.53,12.48,5.91-28.67,60.55-12.47-5.91,12.29-25.95-24.33-11.52-12.29,25.95-12.47-5.91,28.67-60.54M414.48,39.98c-3.75,0-7.34,2.11-9.05,5.72l-28.67,60.54c-2.36,4.99-.23,10.95,4.76,13.32l12.47,5.91c1.38.65,2.84.96,4.27.96,3.75,0,7.34-2.11,9.04-5.72l8.01-16.91,6.25,2.96-8.01,16.91c-1.14,2.4-1.27,5.15-.38,7.64.89,2.5,2.74,4.54,5.14,5.67l12.47,5.91c1.35.64,2.81.96,4.28.96,1.14,0,2.27-.19,3.36-.58,2.5-.89,4.54-2.74,5.67-5.14l28.67-60.55c1.14-2.4,1.27-5.15.38-7.64-.89-2.5-2.74-4.54-5.14-5.67l-12.48-5.91c-1.38-.65-2.84-.96-4.27-.96-3.75,0-7.34,2.11-9.05,5.72l-7.34,15.5-6.25-2.96,7.34-15.5c1.14-2.4,1.27-5.15.38-7.64-.89-2.5-2.74-4.54-5.14-5.67l-12.48-5.91c-1.38-.65-2.84-.96-4.27-.96h0Z"/>
    </g>
  </g>
  <g>
    <g>
      <path class="cls-2" d="M84.86,130.56c-1.28-2.27-3.06-3.56-5.35-3.88-2.29-.31-5.9.03-10.83,1.03-4.93,1-8.98,1.53-12.15,1.59-8.64.15-14.68-2.8-18.09-8.87-1.78-3.15-2.47-6.47-2.09-9.94.38-3.47,1.85-6.84,4.39-10.11,2.54-3.26,5.89-6.06,10.03-8.4,4.17-2.35,8.31-3.69,12.42-4.01,4.11-.33,7.84.38,11.2,2.11,3.35,1.74,6.02,4.35,7.99,7.85l-12.02,6.78c-1.51-2.67-3.52-4.28-6.04-4.81-2.52-.53-5.3.06-8.35,1.77-2.94,1.66-4.87,3.56-5.8,5.73-.93,2.16-.82,4.26.32,6.29,1.07,1.9,2.92,2.95,5.55,3.15,2.63.21,6.12-.18,10.47-1.15,8-1.8,14.42-2.05,19.27-.77,4.84,1.29,8.54,4.2,11.1,8.74,2.85,5.05,3.17,10.09.96,15.11-2.2,5.03-6.54,9.36-13.01,13-4.49,2.53-9.04,4.01-13.65,4.45-4.61.43-8.69-.23-12.24-2-3.55-1.77-6.38-4.54-8.51-8.3l12.07-6.8c3.63,6.44,9.29,7.49,16.99,3.16,2.86-1.61,4.76-3.45,5.71-5.52.95-2.07.84-4.14-.34-6.23Z"/>
      <path class="cls-2" d="M68.55,157.87c-3.78,0-7.22-.76-10.27-2.29-3.8-1.9-6.88-4.89-9.14-8.91-.41-.72-.15-1.64.57-2.04l12.07-6.8c.72-.41,1.64-.15,2.04.57,2.02,3.59,5.77,7.76,14.94,2.59,2.56-1.45,4.28-3.07,5.08-4.83.74-1.62.65-3.21-.28-4.86h0c-1.04-1.86-2.43-2.88-4.25-3.13-2.11-.29-5.58.05-10.32,1.01-4.99,1.01-9.17,1.56-12.42,1.62-9.19.16-15.74-3.08-19.43-9.63-1.93-3.42-2.69-7.07-2.27-10.84.41-3.74,1.99-7.39,4.7-10.86,2.66-3.41,6.18-6.36,10.48-8.78,4.34-2.44,8.73-3.86,13.04-4.2,4.38-.35,8.42.42,12.01,2.28,3.6,1.87,6.5,4.71,8.61,8.45.41.72.15,1.64-.57,2.04l-12.02,6.78c-.35.2-.76.25-1.14.14-.38-.11-.71-.36-.9-.71-1.3-2.3-2.95-3.63-5.04-4.08-2.14-.45-4.6.09-7.3,1.61-2.63,1.48-4.37,3.17-5.16,5.01-.74,1.72-.66,3.34.25,4.96.81,1.45,2.24,2.23,4.36,2.4,2.47.19,5.84-.18,10.03-1.11,8.2-1.84,14.92-2.09,19.98-.75,5.23,1.39,9.27,4.57,12.03,9.45,3.08,5.46,3.42,11,1.03,16.45-2.33,5.31-6.92,9.92-13.64,13.71-4.65,2.62-9.44,4.18-14.25,4.63-.95.09-1.87.13-2.78.13ZM52.52,146.48c1.86,2.84,4.24,5,7.09,6.42,3.27,1.63,7.12,2.25,11.44,1.85,4.38-.41,8.78-1.85,13.06-4.26,6.15-3.46,10.31-7.6,12.37-12.3,2.02-4.61,1.73-9.12-.9-13.78-2.37-4.21-5.7-6.84-10.18-8.03-4.58-1.22-10.83-.95-18.55.78-4.54,1.01-8.11,1.4-10.92,1.18-3.15-.25-5.42-1.56-6.74-3.91-1.38-2.45-1.51-5.01-.39-7.62,1.06-2.46,3.23-4.63,6.45-6.44,3.36-1.89,6.52-2.54,9.4-1.93,2.51.53,4.6,1.97,6.23,4.27l9.43-5.31c-1.72-2.6-3.93-4.6-6.59-5.98-3.09-1.6-6.58-2.25-10.39-1.95-3.87.31-7.84,1.6-11.8,3.83-3.95,2.22-7.17,4.92-9.58,8.01-2.36,3.03-3.73,6.17-4.08,9.35-.35,3.18.27,6.14,1.9,9.04,3.15,5.6,8.62,8.26,16.76,8.11,3.07-.06,7.06-.58,11.88-1.56,5.14-1.04,8.85-1.38,11.33-1.05,2.77.38,4.94,1.94,6.46,4.63,1.42,2.52,1.55,5.07.4,7.59-1.08,2.35-3.21,4.43-6.34,6.2-9.71,5.47-15.21,2.01-18.24-2.45l-9.46,5.33Z"/>
    </g>
    <g>
      <path class="cls-2" d="M139.74,66.59l-19.23,7.16,19.47,52.3-12.94,4.82-19.47-52.3-18.97,7.06-3.9-10.48,51.14-19.04,3.9,10.48Z"/>
      <path class="cls-2" d="M127.04,132.37c-.21,0-.43-.05-.62-.14-.36-.17-.64-.47-.78-.84l-18.95-50.9-17.57,6.54c-.37.14-.79.12-1.15-.04-.36-.17-.64-.47-.78-.84l-3.9-10.48c-.14-.37-.12-.79.04-1.15s.47-.64.84-.78l51.14-19.04c.37-.14.79-.12,1.15.04.36.17.64.47.78.84l3.9,10.48c.29.78-.11,1.64-.88,1.93l-17.82,6.63,18.94,50.9c.29.78-.11,1.64-.88,1.93l-12.94,4.82c-.17.06-.35.09-.52.09ZM107.57,77.07c.21,0,.43.05.62.14.36.17.64.47.78.84l18.95,50.9,10.12-3.77-18.94-50.9c-.29-.78.11-1.64.88-1.93l17.82-6.63-2.85-7.67-48.33,17.99,2.85,7.67,17.57-6.54c.17-.06.35-.09.52-.09Z"/>
    </g>
    <g>
      <path class="cls-2" d="M183.55,88.09l-10.71,2.48,5.52,23.89-13.45,3.11-15.09-65.27,24.25-5.61c7.71-1.78,14.05-1.44,19.03,1.03,4.98,2.47,8.19,6.84,9.64,13.12,1.03,4.45.92,8.39-.32,11.81-1.24,3.42-3.61,6.46-7.12,9.13l20.29,23.41.14.63-14.43,3.34-17.76-21.06ZM170.32,79.67l10.85-2.51c3.38-.78,5.79-2.24,7.25-4.39,1.46-2.15,1.83-4.73,1.14-7.75-.71-3.08-2.15-5.3-4.3-6.65s-5.04-1.62-8.66-.79l-10.8,2.5,4.53,19.59Z"/>
      <path class="cls-2" d="M164.91,119.07c-.28,0-.55-.08-.79-.23-.34-.21-.58-.55-.67-.93l-15.09-65.27c-.09-.39-.02-.79.19-1.13.21-.34.55-.58.93-.67l24.25-5.61c8.02-1.85,14.76-1.47,20.04,1.15,5.38,2.67,8.89,7.42,10.44,14.12,1.09,4.72.97,8.98-.37,12.66-1.18,3.25-3.32,6.21-6.38,8.81l19.27,22.23c.16.19.27.41.33.64l.15.63c.19.81-.32,1.61-1.12,1.8l-14.43,3.34c-.55.12-1.12-.06-1.48-.49l-17.17-20.36-8.36,1.93,5.19,22.43c.19.81-.32,1.61-1.12,1.8l-13.45,3.11c-.11.03-.23.04-.34.04ZM151.62,53.42l14.41,62.34,10.53-2.43-5.19-22.43c-.09-.39-.02-.79.19-1.13.21-.34.55-.58.93-.67l10.71-2.48c.55-.13,1.12.06,1.48.49l17.17,20.36,11.45-2.65-19.13-22.08c-.27-.31-.4-.72-.36-1.14.04-.41.25-.79.58-1.04,3.26-2.48,5.48-5.32,6.62-8.45,1.13-3.13,1.22-6.81.27-10.96-1.36-5.87-4.25-9.83-8.85-12.11-4.64-2.3-10.7-2.61-18.03-.91l-22.79,5.27ZM170.32,81.17c-.28,0-.55-.08-.79-.23-.34-.21-.58-.55-.67-.93l-4.53-19.59c-.09-.39-.02-.79.19-1.13.21-.34.55-.58.93-.67l10.8-2.5c4-.92,7.3-.6,9.79.98,2.49,1.57,4.16,4.12,4.96,7.59.79,3.43.34,6.43-1.36,8.93-1.67,2.46-4.41,4.15-8.15,5.01l-10.85,2.51c-.11.03-.23.04-.34.04ZM167.59,61.21l3.85,16.67,9.39-2.17c2.98-.69,5.11-1.96,6.35-3.77,1.22-1.8,1.52-3.95.92-6.57-.62-2.7-1.81-4.57-3.64-5.72-1.79-1.13-4.32-1.33-7.52-.59l-9.34,2.16Z"/>
    </g>
    <g>
      <path class="cls-2" d="M258.41,71.25l-26.29,3.33,2.26,17.8,30.85-3.91,1.39,11-44.55,5.65-8.42-66.46,44.46-5.64,1.41,11.09-30.76,3.9,2.01,15.84,26.29-3.33,1.36,10.73Z"/>
      <path class="cls-2" d="M222.08,106.61c-.74,0-1.39-.55-1.49-1.31l-8.42-66.46c-.1-.82.48-1.57,1.3-1.68l44.46-5.64c.4-.05.79.06,1.11.3s.52.6.57,1l1.41,11.09c.1.82-.48,1.57-1.3,1.68l-29.27,3.71,1.63,12.86,24.8-3.14c.39-.05.79.06,1.11.3s.52.6.57,1l1.36,10.73c.1.82-.48,1.57-1.3,1.68l-24.8,3.14,1.88,14.82,29.37-3.72c.82-.1,1.57.48,1.68,1.3l1.39,11c.05.39-.06.79-.3,1.11-.24.31-.6.52-1,.57l-44.55,5.65c-.06,0-.13.01-.19.01ZM215.34,39.96l8.04,63.48,41.57-5.27-1.02-8.02-29.37,3.72c-.82.1-1.57-.48-1.68-1.3l-2.26-17.8c-.05-.39.06-.79.3-1.11s.6-.52,1-.57l24.8-3.14-.98-7.75-24.8,3.14c-.4.05-.79-.06-1.11-.3-.31-.24-.52-.6-.57-1l-2.01-15.84c-.1-.82.48-1.57,1.3-1.68l29.27-3.71-1.03-8.12-41.48,5.26Z"/>
    </g>
    <g>
      <path class="cls-2" d="M324.15,43.09l-20.52-.03-.07,55.81-13.8-.02.07-55.81-20.24-.03v-11.18s54.58.07,54.58.07l-.02,11.18Z"/>
      <path class="cls-2" d="M303.55,100.37h0l-13.8-.02c-.4,0-.78-.16-1.06-.44-.28-.28-.44-.66-.44-1.06l.07-54.31-18.74-.02c-.4,0-.78-.16-1.06-.44-.28-.28-.44-.66-.44-1.06v-11.18c.02-.83.69-1.5,1.51-1.5h0l54.57.07c.4,0,.78.16,1.06.44.28.28.44.66.44,1.06v11.18c-.02.83-.69,1.5-1.51,1.5h0l-19.02-.02-.07,54.31c0,.83-.67,1.5-1.5,1.5ZM291.25,97.35h10.8s.07-54.29.07-54.29c0-.4.16-.78.44-1.06.28-.28.66-.44,1.06-.44h0l19.02.02v-8.18s-51.55-.07-51.55-.07v8.18s18.73.02,18.73.02c.4,0,.78.16,1.06.44.28.28.44.66.44,1.06l-.07,54.31Z"/>
    </g>
    <g>
      <path class="cls-2" d="M384.89,87.19c-1.86,6.98-5.54,12.06-11.03,15.23s-12.09,4.02-19.8,2.55c-8.44-1.61-14.53-5.71-18.29-12.31-3.75-6.6-4.69-14.86-2.8-24.77l.76-4.02c1.21-6.33,3.38-11.69,6.53-16.08,3.15-4.39,7.04-7.49,11.67-9.27,4.63-1.79,9.69-2.16,15.18-1.11,7.59,1.45,13.32,4.65,17.19,9.6,3.86,4.95,5.46,11.17,4.78,18.66l-13.56-2.58c.48-4.31-.12-7.62-1.78-9.92-1.67-2.3-4.58-3.85-8.74-4.64-4.52-.86-8.21.11-11.07,2.92-2.86,2.81-4.97,7.62-6.33,14.41l-.95,4.97c-1.36,7.11-1.27,12.51.26,16.21,1.53,3.7,4.61,5.98,9.25,6.87,4.19.8,7.5.44,9.93-1.08,2.43-1.52,4.18-4.25,5.24-8.2l13.56,2.58Z"/>
      <path class="cls-2" d="M361.03,107.16c-2.31,0-4.73-.24-7.25-.72-8.85-1.69-15.35-6.08-19.31-13.05-3.92-6.89-4.92-15.57-2.97-25.79l.77-4.02c1.24-6.51,3.53-12.13,6.79-16.68,3.31-4.62,7.47-7.92,12.36-9.8,4.88-1.88,10.26-2.28,16-1.19,7.92,1.51,14.01,4.92,18.09,10.15,4.09,5.24,5.8,11.88,5.09,19.72-.04.42-.25.81-.59,1.06-.34.26-.77.35-1.18.28l-13.56-2.58c-.77-.15-1.3-.86-1.21-1.64.43-3.91-.07-6.89-1.51-8.87-1.43-1.97-4.06-3.33-7.81-4.05-4.04-.77-7.23.05-9.74,2.52-2.63,2.58-4.62,7.17-5.91,13.64l-.94,4.96c-1.29,6.79-1.24,11.95.17,15.35,1.33,3.23,4,5.18,8.15,5.97,3.79.72,6.76.43,8.85-.88s3.63-3.77,4.59-7.32c.2-.76.96-1.23,1.73-1.08l13.56,2.58c.41.08.77.32.99.68.22.35.29.78.18,1.18-1.96,7.35-5.9,12.78-11.73,16.14-3.97,2.29-8.52,3.44-13.58,3.44ZM361.25,38.31c-3.09,0-6.02.53-8.76,1.59-4.33,1.67-8.03,4.61-11,8.75-3,4.2-5.12,9.41-6.28,15.49l-.77,4.02c-1.81,9.51-.93,17.5,2.63,23.75,3.56,6.26,9.2,10.05,17.26,11.58,7.31,1.39,13.63.6,18.77-2.37,4.7-2.71,8.01-7,9.87-12.76l-10.6-2.02c-1.19,3.61-3.04,6.21-5.49,7.75-2.75,1.72-6.45,2.15-11,1.28-5.15-.98-8.63-3.59-10.36-7.77-1.66-4-1.77-9.59-.35-17.06l.95-4.97c1.44-7.18,3.64-12.15,6.75-15.2,3.22-3.16,7.4-4.28,12.41-3.33,4.53.86,7.78,2.62,9.67,5.23,1.7,2.34,2.43,5.56,2.18,9.58l10.57,2.01c.28-6.33-1.26-11.69-4.58-15.95-3.62-4.63-9.1-7.68-16.29-9.05-1.92-.37-3.78-.55-5.6-.55Z"/>
    </g>
    <g>
      <path class="cls-2" d="M435.08,133.86l-12.47-5.91,12.29-25.95-24.33-11.52-12.29,25.95-12.47-5.91,28.67-60.54,12.48,5.91-11.62,24.53,24.33,11.52,11.62-24.53,12.48,5.91-28.67,60.55Z"/>
      <path class="cls-2" d="M435.08,135.36c-.22,0-.44-.05-.64-.14l-12.47-5.91c-.75-.35-1.07-1.25-.71-2l11.64-24.59-21.62-10.23-11.64,24.59c-.35.75-1.25,1.07-2,.71l-12.47-5.91c-.75-.35-1.07-1.25-.71-2l28.67-60.54c.35-.75,1.25-1.07,2-.71l12.48,5.91c.36.17.64.48.77.85.13.38.11.79-.06,1.15l-10.97,23.18,21.62,10.23,10.97-23.18c.35-.75,1.25-1.07,2-.71l12.48,5.91c.36.17.64.48.77.85.13.37.11.79-.06,1.15l-28.67,60.54c-.17.36-.48.64-.85.77-.16.06-.33.09-.5.09ZM424.61,127.24l9.76,4.62,27.38-57.83-9.76-4.62-10.97,23.18c-.35.75-1.25,1.07-2,.71l-24.33-11.52c-.36-.17-.64-.48-.77-.85-.13-.38-.11-.79.06-1.15l10.97-23.18-9.76-4.62-27.38,57.83,9.76,4.62,11.64-24.59c.35-.75,1.25-1.07,2-.71l24.33,11.52c.36.17.64.48.77.85.13.38.11.79-.06,1.15l-11.64,24.59Z"/>
    </g>
  </g>
  <g>
    <g>
      <path class="cls-2" d="M283.06,166.19c-2.26,3.15-5.59,5.71-10,7.68-4.41,1.97-9.36,3.16-14.87,3.56-5.78.43-10.94-.46-15.49-2.66-4.55-2.2-8.18-5.62-10.9-10.24s-4.36-10.18-4.9-16.66l-.33-4.54c-.49-6.67.21-12.52,2.1-17.57,1.89-5.04,4.86-9.02,8.9-11.91,4.05-2.9,8.91-4.55,14.6-4.97,7.92-.58,14.26.85,19,4.3,4.74,3.45,7.8,8.75,9.15,15.91l-13.4.99c-.89-3.78-2.45-6.48-4.68-8.1s-5.17-2.29-8.85-2.02c-4.68.35-8.11,2.37-10.3,6.06-2.19,3.7-3.04,9.02-2.56,15.97l.31,4.27c.52,7,2.24,12.2,5.16,15.58,2.92,3.38,6.96,4.88,12.1,4.51,5.17-.38,8.78-1.75,10.81-4.12l-.85-11.52-12.53.92-.75-10.14,26.29-1.94,1.96,26.66Z"/>
      <path class="cls-1" d="M255.51,108.73c6.38,0,11.6,1.47,15.66,4.42,4.74,3.45,7.8,8.75,9.15,15.91l-13.4.99c-.89-3.78-2.45-6.48-4.68-8.1-1.91-1.39-4.35-2.08-7.31-2.08-.5,0-1.01.02-1.53.06-4.68.35-8.11,2.37-10.3,6.06-2.19,3.7-3.04,9.02-2.56,15.97l.31,4.27c.52,7,2.24,12.2,5.16,15.58,2.63,3.04,6.16,4.56,10.58,4.56.49,0,1-.02,1.52-.06,5.17-.38,8.78-1.75,10.81-4.12l-.85-11.52-12.53.92-.75-10.14,26.29-1.94,1.96,26.66c-2.26,3.15-5.59,5.71-10,7.68-4.41,1.97-9.36,3.16-14.87,3.56-.94.07-1.86.1-2.76.1-4.68,0-8.92-.92-12.73-2.77-4.55-2.2-8.18-5.62-10.9-10.24-2.72-4.63-4.36-10.18-4.9-16.66l-.33-4.54c-.49-6.67.21-12.52,2.1-17.57,1.89-5.04,4.86-9.02,8.9-11.91,4.05-2.9,8.91-4.55,14.6-4.97,1.15-.08,2.26-.13,3.34-.13M255.51,98.73c-1.32,0-2.69.05-4.07.15-7.52.56-14.15,2.85-19.69,6.82-5.67,4.06-9.86,9.62-12.45,16.54-2.39,6.39-3.3,13.72-2.7,21.81l.33,4.54s0,.06,0,.09c.66,7.96,2.76,14.99,6.24,20.91,3.73,6.33,8.83,11.1,15.16,14.17,5.16,2.5,10.91,3.77,17.09,3.77,1.14,0,2.32-.04,3.5-.13,6.64-.49,12.77-1.97,18.22-4.41,6.02-2.69,10.75-6.38,14.04-10.98,1.37-1.9,2.02-4.23,1.85-6.56l-1.96-26.66c-.14-1.92-.82-3.67-1.87-5.12,1.02-1.97,1.37-4.25.95-6.47-1.84-9.71-6.25-17.16-13.1-22.14-5.78-4.2-13.03-6.34-21.54-6.34h0ZM251.24,132.12c.17-.48.34-.81.47-1.03.32-.54.62-1.05,2.43-1.18.28-.02.55-.03.8-.03.76,0,1.21.1,1.39.16.1.14.32.51.57,1.25l-2.82.21c-.99.07-1.94.29-2.83.63h0Z"/>
    </g>
    <g>
      <path class="cls-2" d="M345.64,108.75l-1.07,44.11c-.18,7.33-2.61,13.07-7.3,17.22s-11,6.13-18.94,5.94c-7.82-.19-13.98-2.41-18.48-6.66-4.5-4.25-6.71-10-6.62-17.24l1.08-44.61,13.8.34-1.07,44.2c-.11,4.39.87,7.61,2.92,9.67,2.05,2.06,4.93,3.13,8.64,3.22,7.76.19,11.8-3.79,12.12-11.95l1.08-44.57,13.84.34Z"/>
      <path class="cls-1" d="M294.31,107.5l13.8.34-1.07,44.2c-.11,4.39.87,7.61,2.92,9.67,2.05,2.06,4.93,3.13,8.64,3.22.18,0,.35,0,.52,0,7.42,0,11.28-3.99,11.59-11.95l1.08-44.57,13.84.34-1.07,44.11c-.18,7.33-2.61,13.07-7.3,17.22-4.48,3.97-10.45,5.95-17.9,5.95-.34,0-.69,0-1.04-.01-7.82-.19-13.98-2.41-18.48-6.66-4.5-4.25-6.71-10-6.62-17.24l1.08-44.61M294.31,97.5c-2.56,0-5.04.99-6.9,2.76-1.92,1.83-3.04,4.35-3.1,7l-1.08,44.61s0,.08,0,.13c-.12,9.97,3.26,18.48,9.75,24.62,6.33,5.98,14.78,9.14,25.1,9.39.43.01.86.02,1.29.02,9.94,0,18.19-2.85,24.53-8.46,6.83-6.05,10.42-14.28,10.67-24.46l1.07-44.11c.06-2.65-.93-5.22-2.76-7.14-1.83-1.92-4.35-3.04-7-3.1l-13.84-.34c-.08,0-.17,0-.25,0-5.41,0-9.86,4.32-9.99,9.76l-1.08,44.48c-.05,1.15-.21,1.83-.32,2.18-.25.05-.66.1-1.28.1-.09,0-.19,0-.28,0-.87-.02-1.37-.14-1.62-.22-.09-.37-.22-1.13-.19-2.43l1.07-44.2c.13-5.52-4.23-10.11-9.75-10.24l-13.8-.34c-.08,0-.16,0-.24,0h0Z"/>
    </g>
    <g>
      <path class="cls-2" d="M381.03,142.68l17.38-28.34,14.99,1.77-26.84,39.83-2.85,24.13-13.94-1.64,2.85-24.13-16.84-44.98,15.03,1.78,10.22,31.6Z"/>
      <path class="cls-1" d="M355.78,109.31l15.03,1.78,10.22,31.6,17.38-28.34,14.99,1.77-26.84,39.83-2.85,24.13-13.94-1.64,2.85-24.13-16.84-44.98M355.78,99.31c-3.05,0-5.96,1.4-7.87,3.83-2.15,2.74-2.72,6.41-1.5,9.68l15.99,42.71-2.56,21.72c-.65,5.48,3.27,10.46,8.76,11.1l13.94,1.64c.39.05.78.07,1.17.07,2.24,0,4.42-.75,6.19-2.15,2.08-1.64,3.43-4.05,3.74-6.68l2.56-21.72,25.49-37.82c1.95-2.89,2.25-6.59.8-9.76-1.45-3.17-4.45-5.35-7.92-5.76l-14.99-1.77c-.39-.05-.78-.07-1.17-.07-3.45,0-6.69,1.79-8.52,4.77l-6.02,9.82-3.53-10.93c-1.2-3.72-4.46-6.4-8.34-6.85l-15.03-1.78c-.39-.05-.78-.07-1.17-.07h0Z"/>
    </g>
  </g>
  <g>
    <g>
      <path class="cls-3" d="M283.06,166.19c-2.26,3.15-5.59,5.71-10,7.68-4.41,1.97-9.36,3.16-14.87,3.56-5.78.43-10.94-.46-15.49-2.66-4.55-2.2-8.18-5.62-10.9-10.24s-4.36-10.18-4.9-16.66l-.33-4.54c-.49-6.67.21-12.52,2.1-17.57,1.89-5.04,4.86-9.02,8.9-11.91,4.05-2.9,8.91-4.55,14.6-4.97,7.92-.58,14.26.85,19,4.3,4.74,3.45,7.8,8.75,9.15,15.91l-13.4.99c-.89-3.78-2.45-6.48-4.68-8.1s-5.17-2.29-8.85-2.02c-4.68.35-8.11,2.37-10.3,6.06-2.19,3.7-3.04,9.02-2.56,15.97l.31,4.27c.52,7,2.24,12.2,5.16,15.58,2.92,3.38,6.96,4.88,12.1,4.51,5.17-.38,8.78-1.75,10.81-4.12l-.85-11.52-12.53.92-.75-10.14,26.29-1.94,1.96,26.66Z"/>
      <path class="cls-3" d="M255.45,180.03c-5.06,0-9.7-1.01-13.84-3.02-4.98-2.41-9-6.19-11.97-11.23-2.9-4.93-4.67-10.9-5.23-17.72l-.34-4.57c-.52-7,.24-13.27,2.25-18.63,2.06-5.5,5.35-9.89,9.79-13.07,4.41-3.15,9.75-4.98,15.88-5.44,8.49-.63,15.44.98,20.65,4.77,5.25,3.82,8.67,9.7,10.14,17.47.13.7-.04,1.42-.47,1.99-.43.57-1.09.92-1.8.97l-13.4.99c-1.23.09-2.33-.72-2.62-1.92-.75-3.16-2-5.4-3.72-6.65-1.72-1.25-4.14-1.78-7.19-1.55-3.85.28-6.57,1.87-8.33,4.84-1.92,3.24-2.66,8.12-2.22,14.52l.31,4.26c.47,6.42,2.01,11.18,4.56,14.13,2.4,2.78,5.68,3.96,10.02,3.65,3.89-.29,6.71-1.16,8.42-2.59l-.58-7.88-10.03.74c-1.37.11-2.58-.93-2.68-2.31l-.75-10.14c-.1-1.38.93-2.58,2.31-2.68l26.29-1.94c1.38-.1,2.58.93,2.68,2.31l1.96,26.66c.04.58-.12,1.17-.46,1.64-2.51,3.5-6.22,6.36-11.01,8.5-4.65,2.08-9.94,3.35-15.71,3.77-.99.07-1.96.11-2.92.11ZM255.47,111.23c-1.01,0-2.05.04-3.12.12-5.2.38-9.68,1.9-13.33,4.51-3.62,2.59-6.31,6.21-8.02,10.76-1.75,4.68-2.41,10.24-1.94,16.51l.33,4.54c.5,6.05,2.04,11.3,4.56,15.58,2.46,4.17,5.77,7.29,9.84,9.26,4.12,2,8.9,2.81,14.21,2.42,5.19-.38,9.91-1.51,14.03-3.35,3.64-1.62,6.48-3.69,8.46-6.16l-1.71-23.22-21.31,1.57.38,5.15,10.03-.74c1.38-.11,2.58.93,2.68,2.31l.85,11.52c.05.66-.17,1.31-.6,1.82-2.51,2.92-6.61,4.54-12.52,4.98-5.95.44-10.72-1.37-14.17-5.37-3.27-3.78-5.21-9.51-5.76-17.03l-.31-4.27c-.52-7.54.43-13.24,2.9-17.42,2.62-4.43,6.75-6.88,12.27-7.28,4.26-.32,7.79.53,10.5,2.5,2.26,1.65,3.96,4.16,5.06,7.48l8.46-.62c-1.42-5.15-3.9-8.97-7.53-11.61-3.61-2.62-8.38-3.94-14.23-3.94Z"/>
    </g>
    <g>
      <path class="cls-3" d="M345.64,108.75l-1.07,44.11c-.18,7.33-2.61,13.07-7.3,17.22s-11,6.13-18.94,5.94c-7.82-.19-13.98-2.41-18.48-6.66-4.5-4.25-6.71-10-6.62-17.24l1.08-44.61,13.8.34-1.07,44.2c-.11,4.39.87,7.61,2.92,9.67,2.05,2.06,4.93,3.13,8.64,3.22,7.76.19,11.8-3.79,12.12-11.95l1.08-44.57,13.84.34Z"/>
      <path class="cls-3" d="M319.36,178.53c-.36,0-.72,0-1.09-.01-8.42-.2-15.19-2.67-20.13-7.34-5.01-4.73-7.5-11.15-7.41-19.08l1.08-44.65c.02-.66.29-1.29.77-1.75.48-.46,1.12-.71,1.78-.69l13.8.34c1.38.03,2.47,1.18,2.44,2.56l-1.07,44.2c-.09,3.66.65,6.29,2.19,7.84,1.59,1.6,3.86,2.42,6.93,2.49,6.38.15,9.29-2.79,9.56-9.54l1.08-44.53c.03-1.38,1.18-2.49,2.56-2.44l13.84.34c.66.02,1.29.29,1.75.78.46.48.71,1.12.69,1.78l-1.07,44.11c-.19,8.02-2.93,14.42-8.14,19.03-4.93,4.37-11.51,6.58-19.57,6.58ZM296.75,110.06l-1.02,42.12c-.08,6.54,1.83,11.57,5.84,15.36,4.02,3.79,9.68,5.8,16.82,5.98,7.27.17,13.05-1.61,17.23-5.31,4.18-3.7,6.29-8.74,6.46-15.41l1.01-41.61-8.85-.21-1.02,42.07c-.37,9.51-5.58,14.62-14.68,14.38-4.36-.11-7.84-1.44-10.35-3.96-2.54-2.55-3.77-6.41-3.64-11.49l1.01-41.7-8.8-.21Z"/>
    </g>
    <g>
      <path class="cls-3" d="M381.03,142.68l17.38-28.34,14.99,1.77-26.84,39.83-2.85,24.13-13.94-1.64,2.85-24.13-16.84-44.98,15.03,1.78,10.22,31.6Z"/>
      <path class="cls-3" d="M383.71,182.56c-.1,0-.2,0-.3-.02l-13.94-1.64c-1.37-.16-2.35-1.4-2.19-2.78l2.78-23.52-16.62-44.41c-.31-.82-.16-1.73.38-2.42.54-.69,1.39-1.04,2.26-.94l15.03,1.77c.97.11,1.79.78,2.09,1.71l8.54,26.43,14.54-23.71c.51-.83,1.45-1.29,2.42-1.18l14.99,1.77c.87.1,1.62.65,1.98,1.44.36.79.29,1.72-.2,2.44l-26.5,39.32-2.78,23.52c-.15,1.27-1.23,2.21-2.48,2.21ZM372.55,176.22l8.97,1.06,2.55-21.64c.05-.4.19-.77.41-1.1l24.55-36.43-9.33-1.1-16.55,26.98c-.51.83-1.46,1.29-2.43,1.18-.97-.12-1.78-.78-2.08-1.71l-9.72-30.07-9.37-1.11,15.4,41.14c.14.37.19.77.14,1.17l-2.55,21.64Z"/>
    </g>
  </g>
</svg>